HIERARCHY
ROOT Hips
{
	OFFSET -249.116806 92.288788 332.350586
	CHANNELS 6 Xposition Yposition Zposition Zrotation Yrotation Xrotation 
	JOINT LeftUpLeg
	{
		OFFSET 0.103458 1.857838 10.548509
		CHANNELS 3 Zrotation Yrotation Xrotation
		JOINT LeftLeg
		{
			OFFSET 43.500004 -0.000038 -0.000002
			CHANNELS 3 Zrotation Yrotation Xrotation
			JOINT LeftFoot
			{
				OFFSET 42.372196 0.000015 0.000010
				CHANNELS 3 Zrotation Yrotation Xrotation
				JOINT LeftToe
				{
					OFFSET 17.300011 0.000003 -0.000006
					CHANNELS 3 Zrotation Yrotation Xrotation
					End Site
					{
						OFFSET 0.000000 0.000000 0.000000
					}
				}
			}
		}
	}
	JOINT RightUpLeg
	{
		OFFSET 0.103461 1.857837 -10.548498
		CHANNELS 3 Zrotation Yrotation Xrotation
		JOINT RightLeg
		{
			OFFSET 43.500046 -0.000042 0.000031
			CHANNELS 3 Zrotation Yrotation Xrotation
			JOINT RightFoot
			{
				OFFSET 42.372253 0.000011 -0.000004
				CHANNELS 3 Zrotation Yrotation Xrotation
				JOINT RightToe
				{
					OFFSET 17.299978 -0.000010 0.000025
					CHANNELS 3 Zrotation Yrotation Xrotation
					End Site
					{
						OFFSET 0.000000 0.000000 0.000000
					}
				}
			}
		}
	}
	JOINT Spine
	{
		OFFSET 6.901964 -2.603743 0.000001
		CHANNELS 3 Zrotation Yrotation Xrotation
		JOINT Spine1
		{
			OFFSET 12.588102 0.000002 0.000000
			CHANNELS 3 Zrotation Yrotation Xrotation
			JOINT Spine2
			{
				OFFSET 12.343204 0.000009 -0.000003
				CHANNELS 3 Zrotation Yrotation Xrotation
				JOINT Neck
				{
					OFFSET 25.832901 -0.000015 0.000002
					CHANNELS 3 Zrotation Yrotation Xrotation
					JOINT Head
					{
						OFFSET 11.766612 0.000023 -0.000003
						CHANNELS 3 Zrotation Yrotation Xrotation
						End Site
						{
							OFFSET 0.000000 0.000000 0.000000
						}
					}
				}
				JOINT LeftShoulder
				{
					OFFSET 19.745905 -1.480377 6.000110
					CHANNELS 3 Zrotation Yrotation Xrotation
					JOINT LeftArm
					{
						OFFSET 11.284127 -0.000004 -0.000022
						CHANNELS 3 Zrotation Yrotation Xrotation
						JOINT LeftForeArm
						{
							OFFSET 33.000050 -0.000022 0.000026
							CHANNELS 3 Zrotation Yrotation Xrotation
							JOINT LeftHand
							{
								OFFSET 25.200010 0.000035 0.000011
								CHANNELS 3 Zrotation Yrotation Xrotation
								End Site
								{
									OFFSET 0.000000 0.000000 0.000000
								}
							}
						}
					}
				}
				JOINT RightShoulder
				{
					OFFSET 19.746092 -1.480381 -6.000066
					CHANNELS 3 Zrotation Yrotation Xrotation
					JOINT RightArm
					{
						OFFSET 11.284147 -0.000020 -0.000017
						CHANNELS 3 Zrotation Yrotation Xrotation
						JOINT RightForeArm
						{
							OFFSET 33.000095 0.000005 0.000016
							CHANNELS 3 Zrotation Yrotation Xrotation
							JOINT RightHand
							{
								OFFSET 25.199768 0.000156 0.000415
								CHANNELS 3 Zrotation Yrotation Xrotation
								End Site
								{
									OFFSET 0.000000 0.000000 0.000000
								}
							}
						}
					}
				}
			}
		}
	}
}
MOTION
Frames: 9
Frame Time: 0.033333
-190.678207 81.503883 -71.530960 83.033073 -6.669356 -86.351807 170.753322 10.019693 172.116177 -55.840775 -2.395206 0.895362 102.299507 -0.063390 9.350117 21.454550 0.003096 -0.000001 146.380052 6.805407 177.125370 -91.604919 -3.331003 3.740822 92.262878 -2.421965 0.063694 21.454555 -0.003097 -0.000019 9.825532 -1.936349 -1.189834 9.685271 -3.766327 -2.538988 9.366757 -3.781453 -2.516170 5.473403 7.138910 -0.816799 -8.380229 -4.036855 1.095195 -167.039598 -78.993747 -14.701779 -1.334166 51.172713 24.479371 -76.184149 -13.079666 2.617256 -5.341552 -19.964672 18.980498 177.902167 71.218492 -0.814001 11.041329 -47.430036 -49.953965 -53.738873 20.319982 -2.264155 3.106309 -1.516310 -32.417352 
-191.382401 82.814201 -83.427803 83.702821 -7.116916 -84.966891 -179.089527 9.208201 174.606314 -51.913474 -2.633174 1.470739 97.144196 -0.075697 8.561542 21.454553 0.003100 -0.000004 143.887060 6.316794 -179.859918 -71.459638 -3.151141 5.750115 89.467343 -4.022855 -0.990176 21.454555 -0.003104 -0.000014 9.544846 -1.411558 -1.703927 9.120627 -2.684500 -3.514728 8.802785 -2.705509 -3.498478 7.906587 5.943200 -0.166960 -8.420445 -4.437322 1.614736 -162.121698 -79.814852 -19.697852 -1.083788 53.957323 19.341562 -84.150027 -8.782789 2.661483 -9.305570 -17.656698 22.900489 179.709230 72.037828 1.062176 18.277071 -43.717568 -60.183543 -56.397955 19.431822 -2.299377 1.581460 -2.750130 -30.013992 
-192.142395 84.117760 -95.706650 84.561423 -7.596515 -83.747101 -169.627379 7.072901 175.889365 -47.609308 -2.766019 3.051896 88.047955 -0.805316 6.553103 21.454551 0.003090 -0.000006 145.961566 5.678293 -173.725739 -46.158319 -4.614151 3.287107 85.471389 -1.660958 2.858930 21.454560 -0.003107 -0.000018 9.190062 -0.896723 -2.142496 8.399228 -1.635761 -4.344759 8.081966 -1.661814 -4.334821 10.676200 5.164067 0.486011 -8.844015 -4.928688 2.252450 -157.803215 -80.319377 -24.077265 1.282879 55.518762 16.974743 -91.017714 -3.904149 2.623292 -10.326200 -15.923370 24.621886 -179.357967 73.417102 2.045702 26.274459 -41.084869 -68.589012 -58.468885 19.531264 -2.383049 3.003995 -4.987878 -28.376330 
-193.024994 84.658630 -107.668701 83.950449 -7.285428 -81.943200 -164.713195 6.143099 175.695442 -49.078324 -1.234585 4.153050 79.182226 -3.003422 -0.757549 21.454551 0.003096 -0.000005 149.523114 6.440196 -173.631291 -21.715060 -1.210678 1.263163 85.399747 0.489964 7.227893 21.454557 -0.003112 -0.000018 8.590131 -0.821467 -2.573273 7.201667 -1.481610 -5.192963 6.884855 -1.512769 -5.183946 13.280824 4.759106 0.568452 -8.012731 -5.399238 2.295355 -157.875506 -81.527009 -23.982985 5.137585 55.865657 19.848105 -96.051031 -2.023507 2.715613 -12.430340 -16.173186 26.396957 -176.627886 75.092322 4.869400 35.046493 -38.846090 -72.444900 -61.105413 18.147837 -2.388349 4.461894 -10.016919 -30.820187 
-193.995697 84.108383 -118.990402 82.346147 -7.455334 -79.728402 -163.567294 6.076092 176.863609 -57.586179 -0.459840 3.372624 77.423193 -4.631778 -8.517147 21.454550 0.003092 -0.000002 151.615979 8.672190 -178.423529 -9.567815 1.618841 2.756470 83.656512 -0.193305 8.676715 21.454558 -0.003106 -0.000015 8.201880 -1.024161 -2.951766 6.440859 -1.883101 -5.956567 6.124431 -1.918825 -5.945135 15.259005 4.062783 0.248395 -6.736071 -4.867683 1.655378 -155.679149 -82.930921 -26.179468 8.320339 55.934366 24.090362 -98.749222 -1.430326 2.794166 -11.894362 -15.754743 23.932979 -172.071030 76.962824 9.545008 42.057457 -36.920871 -75.027285 -64.223135 16.961556 -2.428529 5.473654 -15.013227 -33.712301 
-194.863205 82.278282 -129.964798 80.811124 -8.774681 -77.850708 -165.243614 5.268402 176.538410 -73.060785 0.039119 3.563667 83.047908 -4.283008 -8.417591 21.454555 0.003095 0.000009 151.407412 9.653896 -176.628391 -15.006610 0.420262 1.799686 86.420997 0.484277 9.714732 21.454557 -0.003118 -0.000023 8.304008 -1.203596 -3.042633 6.656460 -2.230794 -6.150426 6.340066 -2.267682 -6.136894 15.562851 3.587163 -0.445806 -7.208837 -4.515833 0.834979 -160.205311 -83.686333 -21.592902 10.330880 55.744305 26.726158 -99.087993 -1.435945 2.809608 -10.482862 -13.862255 22.350092 -165.243805 77.552194 16.511405 44.641382 -35.178449 -75.018065 -66.064322 15.811869 -2.422599 6.764172 -19.217596 -31.025451 
-195.382401 81.203682 -139.856201 81.772022 -11.754339 -77.375402 -169.331331 2.848902 173.459375 -90.564784 2.306900 1.579926 87.017464 -2.135381 -5.362186 21.454551 0.003088 0.000008 152.319092 7.736889 -173.529097 -24.869180 -1.335204 0.301091 72.166741 2.172815 7.577551 21.454560 -0.003115 -0.000020 9.018495 -0.858163 -2.703973 8.061344 -1.526173 -5.461523 7.744693 -1.558931 -5.452248 13.419184 2.604415 -1.375719 -6.999314 -3.142214 -0.481194 -156.958266 -83.411138 -24.877272 8.198022 56.647519 25.921031 -96.561226 -1.773434 2.720838 -9.494134 -12.701042 21.591727 -164.516444 76.818926 17.258276 42.051958 -36.022790 -73.657545 -65.500824 16.394597 -2.440278 4.981234 -18.967172 -26.638206 
-195.647903 79.452057 -148.882996 83.802262 -14.624962 -78.153019 -176.838857 -0.776508 171.348601 -109.057603 3.397089 1.060778 91.748073 -1.006435 -1.178269 21.454550 0.003094 -0.000003 149.138929 5.165798 -173.899171 -42.798939 -0.688294 0.231103 68.832488 -0.183515 0.095399 21.454560 -0.003111 -0.000019 9.876366 -0.245872 -2.034897 9.745654 -0.319538 -4.083203 9.428420 -0.344033 -4.081207 10.020202 1.844787 -2.337698 -6.431446 -2.491812 -1.630043 -157.019711 -82.150694 -24.838647 3.033163 57.833923 22.891801 -90.949488 -3.355424 2.581926 -7.708821 -11.765928 24.305363 -168.152987 74.570400 13.547096 34.192634 -37.067341 -68.484900 -61.839556 16.547460 -2.306727 4.155995 -13.213272 -25.040356 
-196.039505 78.228539 -157.072403 86.278929 -16.904131 -80.128822 172.420776 -3.866904 169.887555 -123.174006 4.069090 1.943087 98.079727 -1.186637 2.549120 21.454550 0.003096 -0.000006 150.005543 3.053395 -169.736416 -54.853710 -1.618917 -1.851158 77.575369 -0.282651 -5.764935 21.454555 -0.003103 -0.000016 10.765153 0.448311 -1.171513 11.507775 1.010917 -2.292629 11.189902 0.997195 -2.298665 7.532552 1.858716 -3.266145 -7.050195 -2.442228 -2.535462 -162.589224 -79.255705 -19.228156 -5.429295 58.424427 21.849528 -80.402521 -10.710345 2.632958 -6.735253 -12.646199 26.004297 -178.159993 72.344599 3.258514 21.073384 -38.306634 -64.383597 -52.119039 18.773559 -2.103222 -0.102491 -4.081468 -20.904045 
